<svg xmlns="http://www.w3.org/2000/svg" xmlns:xlink="http://www.w3.org/1999/xlink" width="21" height="21" viewBox="0 0 21 21">
  <defs>
    <clipPath id="clip-path">
      <rect id="Rectangle_25" data-name="Rectangle 25" width="21" height="21" transform="translate(0 0.451)" fill="#fff" stroke="#707070" stroke-width="1"/>
    </clipPath>
  </defs>
  <g id="Mask_Group_5" data-name="Mask Group 5" transform="translate(0 -0.451)" clip-path="url(#clip-path)">
    <g id="call-24px" transform="translate(0 0.117)">
      <path id="Path_16" data-name="Path 16" d="M0,0H21.034V21.034H0Z" fill="none"/>
      <path id="Path_17" data-name="Path 17" d="M18.408,14.35a10.029,10.029,0,0,1-3.094-.491.857.857,0,0,0-.885.21L13.053,15.8A13.307,13.307,0,0,1,7.014,9.81L8.723,8.355a.894.894,0,0,0,.21-.894,9.774,9.774,0,0,1-.491-3.094A.875.875,0,0,0,7.575,3.5H4.543c-.473,0-1.043.21-1.043.868A15.032,15.032,0,0,0,18.408,19.276a.92.92,0,0,0,.868-1.034V15.218A.875.875,0,0,0,18.408,14.35Z" transform="translate(-0.871 -0.871)" fill="#fff"/>
    </g>
  </g>
</svg>
