<svg xmlns="http://www.w3.org/2000/svg" width="159.195" height="216" viewBox="0 0 159.195 216">
  <g id="icon" transform="translate(23.706 21)">
    <path id="Path_33" data-name="Path 33" d="M84.613,3A76.354,76.354,0,0,0,68.7,4.592C37.32,10.617,12.309,35.968,6.4,67.345a79.549,79.549,0,0,0,25.238,74.577,22.107,22.107,0,0,1,7.5,16.712v26.261a22.8,22.8,0,0,0,22.737,22.737h3.183a22.5,22.5,0,0,0,39.107,0h3.183a22.8,22.8,0,0,0,22.737-22.737V158.634a22.049,22.049,0,0,1,7.276-16.6A79.491,79.491,0,0,0,84.613,3Zm22.737,181.895H61.876V173.526h45.474Zm0-22.737H61.876V150.789h45.474ZM90.3,98.608v29.444H78.928V98.608l-20.8-20.691L66.2,69.846,84.613,88.263l18.417-18.417,8.072,8.072Z" transform="translate(-28.703 -24)" fill="rgba(213,202,214,0.1)"/>
  </g>
</svg>
