<svg xmlns="http://www.w3.org/2000/svg" width="25.389" height="18.361" viewBox="0 0 25.389 18.361">
  <g id="hamburber-white" transform="translate(-5.842 -11.684)">
    <path id="Path_83" data-name="Path 83" d="M4.411,24.361H26.979a1.535,1.535,0,0,0,0-3.06H4.411a1.535,1.535,0,0,0,0,3.06Zm0-7.65H26.979a1.535,1.535,0,0,0,0-3.06H4.411a1.535,1.535,0,0,0,0,3.06ZM3,7.53A1.478,1.478,0,0,0,4.411,9.06H26.979a1.478,1.478,0,0,0,1.411-1.53A1.478,1.478,0,0,0,26.979,6H4.411A1.478,1.478,0,0,0,3,7.53Z" transform="translate(2.842 5.684)" fill="#fff"/>
  </g>
</svg>
