<svg xmlns="http://www.w3.org/2000/svg" width="179.094" height="216.868" viewBox="0 0 179.094 216.868">
  <g id="edit_location-24px" transform="translate(-40.977 -5.302)">
    <path id="Path_85" data-name="Path 85" d="M148.545,13.348l9.834-9.834a10.2,10.2,0,0,1,14.444,0l7.273,7.273a10.2,10.2,0,0,1,0,14.444l-9.834,9.834ZM138.3,23.592,160.019,45.31,98.861,106.467A5.225,5.225,0,0,1,95.276,108H80.831a5.072,5.072,0,0,1-5.122-5.122V88.438a4.805,4.805,0,0,1,1.537-3.585ZM118.018,22.26l-54.7,54.7a10.579,10.579,0,0,0-2.971,7.273v28.991a10.274,10.274,0,0,0,10.244,10.244H99.578a10.579,10.579,0,0,0,7.273-2.971l54.6-54.6a89.276,89.276,0,0,1,6.454,33.908q0,48.865-75.192,115.042a10.42,10.42,0,0,1-13.625,0Q4.1,148.622,4,99.809c0-51.016,38.928-84,81.953-84a82.6,82.6,0,0,1,32.064,6.454Z" transform="translate(36.977 4.784)" fill="#fff"/>
  </g>
</svg>
