<svg xmlns="http://www.w3.org/2000/svg" viewBox="0 0 367.5 53.6">
<g>
<g>
<path style="fill:#F4AA14;" d="M115.9,10.1h8.6l3.1,20.1l4.6-20.1h8.6l4.6,20.1l3.1-20.1h8.6L150.6,46h-8.9l-5.2-22.6L131.4,46
h-8.9L115.9,10.1z"></path>
<path style="fill:#F4AA14;" d="M160,10.1h24.4v7.7h-15.3v5.7h14.2v7.3h-14.2v7.1h15.7V46H160V10.1z"></path>
<path style="fill:#F4AA14;" d="M189.7,10.1h17c2.8,0,5,0.9,6.5,2.6c1.5,1.7,2.3,3.8,2.3,6.4c0,2.1-0.5,3.9-1.6,5.5
c-0.7,1-1.8,1.8-3.2,2.4c2.1,0.6,3.7,1.7,4.7,3.2c1,1.5,1.5,3.4,1.5,5.7c0,1.9-0.4,3.5-1.1,5c-0.7,1.5-1.7,2.7-2.9,3.5
c-0.8,0.5-1.9,0.9-3.5,1.2c-2,0.3-3.4,0.5-4.1,0.5h-15.7V10.1z M198.9,24.2h4c1.4,0,2.4-0.3,3-0.9c0.6-0.6,0.8-1.5,0.8-2.6
c0-1-0.3-1.9-0.8-2.5c-0.6-0.6-1.5-0.9-2.9-0.9h-4V24.2z M198.9,38.3h4.6c1.6,0,2.7-0.3,3.3-1c0.6-0.7,1-1.6,1-2.7
c0-1.1-0.3-1.9-1-2.6c-0.6-0.6-1.8-1-3.3-1h-4.6V38.3z"></path>
<path style="fill:#0095A0;" d="M221.8,10.1h13.5c2.7,0,4.8,0.4,6.5,1.3c1.6,0.9,3,2.2,4.1,3.8c1.1,1.7,1.8,3.6,2.3,5.8
c0.5,2.2,0.7,4.5,0.7,7c0,3.8-0.4,6.8-1.1,8.9c-0.7,2.1-1.7,3.9-3,5.3c-1.3,1.4-2.6,2.4-4.1,2.9c-2,0.7-3.8,1-5.4,1h-13.5V10.1z
M230.9,18.2v19.6h2.2c1.9,0,3.3-0.3,4.1-0.8c0.8-0.5,1.4-1.4,1.9-2.7c0.5-1.3,0.7-3.4,0.7-6.2c0-3.8-0.5-6.4-1.5-7.8
c-1-1.4-2.7-2.1-5.1-2.1H230.9z"></path>
<path style="fill:#0095A0;" d="M272.8,10.1h9.1v21.4c0,2.1-0.3,4.1-0.8,6c-0.5,1.9-1.4,3.5-2.6,4.9c-1.2,1.4-2.4,2.4-3.6,3
c-1.8,0.8-3.9,1.2-6.4,1.2c-1.4,0-3-0.1-4.7-0.4c-1.7-0.2-3.1-0.7-4.2-1.5c-1.1-0.7-2.2-1.8-3.1-3.1c-0.9-1.3-1.6-2.7-1.9-4.1
c-0.6-2.3-0.8-4.3-0.8-6.1V10.1h9.1V32c0,2,0.4,3.5,1.3,4.6c0.9,1.1,2.1,1.7,3.7,1.7c1.6,0,2.8-0.5,3.7-1.6
c0.9-1.1,1.3-2.6,1.3-4.6V10.1z"></path>
<path style="fill:#0095A0;" d="M288.3,10.1h9.1V46h-9.1V10.1z"></path>
<path style="fill:#0095A0;" d="M304,10.1h8.5L323.6,30V10.1h8.6V46h-8.6l-11-19.7V46H304V10.1z"></path>
<path style="fill:#0095A0;" d="M337,28.1c0-5.9,1.3-10.4,4-13.7c2.7-3.3,6.4-4.9,11.2-4.9c4.9,0,8.7,1.6,11.3,4.8
c2.6,3.2,4,7.7,4,13.5c0,4.2-0.6,7.6-1.7,10.3c-1.2,2.7-2.8,4.8-5,6.3c-2.2,1.5-4.9,2.2-8.2,2.2c-3.3,0-6.1-0.6-8.2-1.9
c-2.2-1.3-3.9-3.3-5.3-6.1C337.7,35.8,337,32.3,337,28.1z M346.1,28.1c0,3.6,0.6,6.2,1.7,7.8c1.1,1.6,2.6,2.4,4.5,2.4
c2,0,3.5-0.8,4.5-2.3c1.1-1.6,1.6-4.3,1.6-8.4c0-3.4-0.6-5.9-1.7-7.4c-1.1-1.6-2.6-2.3-4.5-2.3c-1.8,0-3.3,0.8-4.4,2.4
C346.7,21.9,346.1,24.5,346.1,28.1z"></path>
</g>
<g>
<g>
<path style="fill:#0095A0;" d="M95.8,10V0.2h1.8V10H95.8z"></path>
<path style="fill:#0095A0;" d="M98.9,5.2c0-1,0.1-1.8,0.4-2.5c0.2-0.5,0.5-1,0.8-1.4c0.3-0.4,0.7-0.7,1.1-0.9
c0.5-0.3,1.2-0.4,1.9-0.4c1.3,0,2.3,0.5,3.1,1.4c0.8,0.9,1.2,2.2,1.2,3.8c0,1.6-0.4,2.8-1.2,3.7c-0.8,0.9-1.8,1.3-3.1,1.3
c-1.3,0-2.3-0.4-3.1-1.3C99.3,8,98.9,6.7,98.9,5.2z M100.7,5.1c0,1.1,0.2,2,0.7,2.5c0.5,0.6,1,0.9,1.7,0.9c0.7,0,1.3-0.3,1.7-0.9
c0.5-0.6,0.7-1.4,0.7-2.6c0-1.1-0.2-2-0.7-2.5c-0.4-0.6-1-0.8-1.8-0.8c-0.7,0-1.3,0.3-1.8,0.8C101,3.1,100.7,4,100.7,5.1z"></path>
</g>
<g>
<polygon style="fill:#F4AA14;" points="64.7,37.1 64.7,37.1 49.5,0.2 49.1,0.2 47.9,0.2 44.2,0.2 39.9,10.6 39.9,10.6 39.5,11.6
39.5,11.6 39.5,11.6 29.5,36.1 14.7,0.2 0,0.2 21.9,53.6 22.3,53.6 22.8,53.6 27.2,53.6 31.9,42.1 31.9,42.1 42,17.6 56.7,53.6
57.1,53.6 57.9,53.6 62,53.6 66.7,42.1 "></polygon>
<g>
<polygon style="fill:#0B8D97;" points="84.3,0.2 83.9,0.2 82.8,0.2 79,0.2 74.3,11.6 74.3,11.6 64.3,36.1 66.7,42.1 76.8,17.6
91.5,53.6 106.2,53.6 "></polygon>
<polygon style="fill:#0B8D97;" points="69.9,53.6 83.6,53.6 76.8,36.1 "></polygon>
</g>
</g>
</g>
</g>
</svg>