<svg xmlns="http://www.w3.org/2000/svg" viewBox="0 0 319.6 136.5">
<g>
<path style="fill-rule:evenodd;clip-rule:evenodd;fill:#F4AA14;" d="M125,83.2c0.1-2.2,1.3-3.3,1-5.8c-1.1-0.6-1.4,0.5-2.9,0.3
c0.4,1.6,0.7,3.1-0.5,4.2c-1.2,0.1-1.6-0.5-2.9-0.3c0.3-0.3,0.6-1.7-0.5-1.3c1.1-1.9,1.1-4,2.4-5.8c2.5-3.4,8.3-2.4,10.2,0.5
c0.8,1.2,1.4,3.1,0.5,4.2c-0.2,0.3-0.7,0.3-1.1,0.8c-0.9,1.1-1.5,2.8-2.4,3.1C127.7,83.8,126,83.5,125,83.2z"></path>
<path style="fill-rule:evenodd;clip-rule:evenodd;fill:#F4AA14;" d="M142.1,77.1c0-0.4,1.7-0.5,1.3,0.3
C142.8,77.5,142.8,76.9,142.1,77.1z"></path>
<path style="fill-rule:evenodd;clip-rule:evenodd;fill:#F4AA14;" d="M94.6,78.7C94,79.6,93.3,78,94.6,78.7L94.6,78.7z"></path>
<path style="fill-rule:evenodd;clip-rule:evenodd;fill:#F4AA14;" d="M79.9,83.4c1.1,0-0.4,1.4-1.3,1c-0.9,0.9-2.6,2.2-3.7,2.1
C75.7,84.7,78.1,84.3,79.9,83.4z"></path>
<path style="fill-rule:evenodd;clip-rule:evenodd;fill:#0095A0;" d="M225.3,103.9c0.8-0.6,2.2-0.9,1.6-2.1c1.5,0.1,1.9-1,3.1-1.3
c0.5,2,1.9,3.2,4.5,3.1c-0.1,1.8-1.5,2.4-2.1,3.7c0.4,1.1,1.8-0.1,2.9,0c0.3,1,0.4,1.2,0.5,1.8c1.1-0.8,1.9-1.7,1.6-3.7
c-0.6-4.4-7-8.5-10.2-10.2c-0.1-0.8-0.3-1.5-0.5-2.1c-0.5-0.4-1.4-0.5-2.4-0.5c0.2-1.2,2.2-0.6,2.1-2.1c6.6-1.1,10.5,2.4,13.4,5.8
c0.9,0.1,1.4,0.7,2.1,1c1.2,2.5,3.3,4.8,3.7,7.9c0.1,1-0.7,2,0.3,2.9c-0.7,3-2,5.4-3.7,7.3c-1.8,0.2-3,1-4.2,1.8
c-1.4,0-2.3-0.4-3.4-0.3c-0.6,0.1-1.2,0.6-1.8,0.5c-4.5-0.3-5.9-5.1-8.1-8.4c0.6-1.4,0.7-3.2,1.6-4.2
C226.1,104.3,225.7,104.1,225.3,103.9z"></path>
<path style="fill-rule:evenodd;clip-rule:evenodd;fill:#F4AA14;" d="M134.7,94.7c-0.6,0.1-0.6-0.5-1.3-0.3
C133.4,93.7,134.8,94,134.7,94.7z"></path>
<path style="fill-rule:evenodd;clip-rule:evenodd;fill:#F4AA14;" d="M136.3,93.9c0.2,0,0.4,0,0.5,0c0,0.2,0,0.4,0,0.5
c-0.2,0-0.4,0-0.5,0C136.3,94.3,136.3,94.1,136.3,93.9z"></path>
<path style="fill-rule:evenodd;clip-rule:evenodd;fill:#F4AA14;" d="M137.4,94.7C138.4,94,139.1,95.6,137.4,94.7L137.4,94.7z"></path>
<path style="fill-rule:evenodd;clip-rule:evenodd;fill:#F4AA14;" d="M72,101.6c-0.1,1.2-1.8,1.4-3.9,2.1c-0.8,0.3-1.5,0.9-2.1,1
c-0.9,0.2-1.3-0.1-2.6,0.3c-1.3,0.4-3.2,0.3-4.5,0.5c-0.4,0.1-0.7,0.5-1,0.5c-4.9,0.4-8.4-1.2-10.2-4.7c-1.3-0.2-1,1.2-2.1,0.5
c-0.1-1,0.5-1.3,0.3-2.4c1.3-0.2,2.4-1,3.4,0c6.8-0.4,13.3,0.3,19.2,0C69.3,100.4,71.4,100.2,72,101.6z"></path>
<path style="fill-rule:evenodd;clip-rule:evenodd;fill:#F4AA14;" d="M76.7,101.6c-0.2,0.4-0.6,0.5-1,0.5
C75.4,101.3,76.3,101.6,76.7,101.6z"></path>
<path style="fill-rule:evenodd;clip-rule:evenodd;fill:#F4AA14;" d="M77.8,105.5c0.8,1-0.7,0.3-1,0.8
C75.6,105.6,77.8,106,77.8,105.5z"></path>
<path style="fill-rule:evenodd;clip-rule:evenodd;fill:#F4AA14;" d="M271,124.1c0.1-0.6,1.3-0.1,1.8-0.3
C272.7,124.8,271.5,124.3,271,124.1z"></path>
<path style="fill-rule:evenodd;clip-rule:evenodd;fill:#0095A0;" d="M110.1,128.3c-0.2,0-0.4,0-0.5,0c0-0.2,0-0.4,0-0.5
C110,127.7,110,128,110.1,128.3z"></path>
<path style="fill-rule:evenodd;clip-rule:evenodd;fill:#0095A0;" d="M107.7,128.8c0.3,0.1,0.2,0.5,0.5,0.5
C108.1,130.1,107.4,129.4,107.7,128.8z"></path>
<path style="fill-rule:evenodd;clip-rule:evenodd;fill:#0095A0;" d="M111.4,129.4c-0.2-0.2-0.8-1.1-0.8,0c-0.3-0.2-0.3-0.6-0.8-0.5
c1,1.2,4.3,0.9,4.5,3.7c-0.2,0.2-1.5,0.6-1.6,0c-0.3,0.4-0.9,1.8-2.6,1.6c-0.2-0.8-1.7-1.6-2.1-1.3c-0.1-1.2-2.4-2.9-1-3.9
c-0.5-0.4-1.4-0.4-1-1.6c1-0.1,0.9-0.3,1.6,0.3c0.2-0.7-0.4-0.7-0.3-1.3c1.1,0.6,0.9,0.3,1.8-0.3
C109.3,127.5,111.5,128.3,111.4,129.4z M109.5,127.8c0,0.2,0,0.4,0,0.5c0.2,0,0.4,0,0.5,0C110,128,110,127.7,109.5,127.8z
M108.2,129.4c-0.3,0-0.2-0.5-0.5-0.5C107.4,129.4,108.1,130.1,108.2,129.4z"></path>
<path style="fill-rule:evenodd;clip-rule:evenodd;fill:#F4AA14;" d="M73.1,81.6c1.1,0.5,1.8,1.3,2.6,2.1c2,0.4,3.7-0.8,5-0.3
c3.2-1.7,7.4-3.4,11.5-3.1c4.3,0.2,6.9,3.6,9.2,5.8c0.6,2.8,1.3,6.1,0.3,8.7c1.2,3.2-1.8,6-1.3,10.2c-1,2.3-4,2.5-5.2,4.5
c-0.3-0.1-0.4-0.5-0.8-0.5c-0.7,1.4-3.3,0.9-5,1.3c-1.1-0.9-3-0.8-4.2-1.6c-0.4-0.5-0.3-1.5-0.5-2.1c-1.2-0.3-1.6,0.3-2.4,0.5
c0.1-1.1-0.6-1.4-1.1-1.8c-1.2,0.1-1.7,0.9-2.6,0c0.4,2.8-3.3,3-4.7,4.7c-0.9-0.6-1.8-1.2-3.1-1.3c1.5-3.4,3.3-4.4,5-8.1
c0-1.4-1.2-1.6-1.3-2.9c-0.3-0.9,0.8-0.4,1.3-0.5c-0.9-1-0.2-1.2,0.8-1.6c-0.4-0.6-2-0.1-2.9-0.3c-0.5-0.6-0.8-1.3-1.3-1.8
c-2.5,0.2-3.6,1.6-5,2.9c-4.3,1.1-14.1,4.3-19.2,1c-1.2-0.7-1.5-2.6-3.1-2.9c0.1,0.9-1.3,1-2.4,0.8c0.1-1.4,1.7-1.5,1.8-2.9
c4.8,0.4,11.6-2.6,15.7-1.8c0.4,0.1,0.5,0.1,0.5,0.5c1.7-0.4,4-0.8,5,0.5c2.6-1.2,4.5,1.5,6.3,1.1c-0.2-1.2-1.8-0.8-1.8-2.1
c1.4-1.4,3.5-2.1,4.7-3.7c-1.5,0.3-3.2,0.2-4.7,0.5c-1.1,0.2-2,1-3.1,1.3c-2.6,0.7-5.4,0.5-8.1,1.1c-1.7,0.3-4,0.3-6.6,0.3
c-1.9,0-3.9,0.8-5.8,0.8c-1,0-4.6-0.3-5.8-0.8c-0.7-0.3-1.5-1.7-2.1-2.1c-0.6-0.5-1.7-0.6-2.4-1c-0.2-0.1-0.2-0.8-0.5-1
c-0.3-0.2-0.8,0-1.1-0.3c-0.6-0.5-1.5-1.7-1.6-1.8c-0.2-0.3-0.1-1.2-0.3-1.6c-0.3-0.5-1,0.1-0.8-0.8c1.6-1.9,4.3-1,7.1-0.8
c0.8,0.1,1.7,0.1,2.6,0.3c2.5,0.3,5.1,1.6,7.3,1.8c2.7,0.3,5-0.6,7.6-0.5c-2-2-5.2-2.3-7.3-3.9c-0.2-0.1-0.2-0.8-0.5-1.1
c-0.2-0.2-0.9,0-1-0.3c-0.1-0.1,0.1-0.6,0-0.8C47.1,75,45,74.3,45,72.7c-0.3-1,0.7-0.3,1-0.5c0.5-0.3,0.6-0.8,1.1-1
c4.4-2.1,7.9,3,13.4,2.9c0.7,1.1,1.7,1.8,2.9,2.4c0,2.2,0.7,3.3-0.5,4.7c-1.2,0.2-3.1-0.3-3.9,0.3c0,0.9,3.1,0.1,4.2,0
c2.6-0.1,5.5,0,7.9,0.3C69.8,83.2,71.9,81.5,73.1,81.6z M74.9,86.6c1,0.1,2.8-1.2,3.7-2.1c1,0.3,2.4-1,1.3-1
C78.1,84.3,75.7,84.7,74.9,86.6z M94.1,102.9c0.1-1.1-1.1-1.9-1.3-3.1c-0.2-1.3,0.3-2.6,0.3-3.9c-0.1-2.5-0.7-4.7-1-6.6
c-2-2.2-6.9-1-8.9,0.5c1.2,1.5,0.8,2.3,0.5,3.9c-0.2,0.9,0.1,2.1,0,2.9c-0.2,1.8-1.3,3.3-1,4.5c0.3,1.6,2,2.6,3.9,3.1
c0.6,0.1-0.1-1.2,0.8-0.8c1.7,0.9,2.5,2.9,5.2,2.1C92.7,104.7,94,104,94.1,102.9z M75.7,102.1c0.5,0,0.9-0.2,1-0.5
C76.3,101.6,75.4,101.3,75.7,102.1z M76.7,106.3c0.3-0.5,1.9,0.2,1-0.8C77.8,106,75.6,105.6,76.7,106.3z"></path>
<path style="fill-rule:evenodd;clip-rule:evenodd;fill:#F4AA14;" d="M163.4,75c1.1,0.9,1.2,1.5,2.9,2.1c0.6,2.8-1.7,4.9-2.9,7.1
c0.9,1,2.5,1.3,3.9,1.8c2.4-1.8,4.2-4.2,4.5-8.1c1.2,0.6,1.1,2.4,2.4,2.9c0.1,3.4-0.8,5.9-2.6,7.3c1.5,1.1,4,1.2,5.5,2.4
c-0.4,0.4-1.2,2.7,0.3,2.6c-3.7,0.3-7.3-1.8-10.8-2.6c-0.8,0.2-0.4-0.9-1-0.8c-0.7,0-1.4,0-2.1,0c-0.8-1.1-2.8-1.1-3.9-1.8
c-1,0.9-1.8-0.4-2.4,0.5c-0.8-0.2,0.2-0.8,0-1.3c-0.5-0.8-1.8-0.6-2.4-1.3c-2.3,1.7-3.2,4.8-5.5,6.6c5.7,1.4,14.7-1.5,18.9,0
c-0.5,0.5-1.9,1.7-0.3,2.1c-3.1,1.6-6.4,3.2-10.5,3.2c-0.6,0-0.9-0.5-1.6-0.5c-3-0.3-6.5,0.7-9.4-0.3c-1.9,1.8-2.2,6.2-5.8,5.5
c-0.5-1.7,0.5-1.8,0-3.1c0.4-0.1,0.7-0.4,1.1-0.5c0-2.3,2.3-3.7,1.6-6.3c0.5-0.5,0.5,0.1,1.1,0.3c0.6-1.2,2.3-2.6,1.6-4.2
c-2.5,1.3-5.3,2.4-8.9,2.1c-3.8-0.4-9.4,0.5-14.4-0.5c-0.8-0.2-1.7-0.8-2.6-1c-1.2-0.3-2.4-0.1-2.6-0.3c-2-1-2.2-3.3-3.7-4.7
c1.1-0.3,2.6,0.1,3.7-0.8c6.4,1.5,13.1,0.9,19.9,1c-0.1,0.6,1.2-0.1,0.8,0.8c0.2-0.5,1.5,0.1,1.6-0.5c0.9-0.2,0.3,1.1,1.3,0.8
c0.4-0.6-0.4-2.2-0.8-2.9c2.7,0.3,6.5,1.1,8.9,2.9c1.1-0.3,1-1.8,1.6-2.6c-1.1-1.3-2.7-2-4.2-2.9c0.1-0.9-1.4-0.9-0.8-1.6
c-0.6-0.2-0.9-0.7-1.8-0.5c0-0.4,0.9-1.4,0.3-1.6c0.9-0.3,2.5,1,3.7,1.3c0.8,0.3,0.2-0.8,1-0.5c3.4,0.9,5.5,3.1,8.7,4.2
c-0.1,0.6,0,1,0.3,1.3c1.5,0.2,2.1-0.6,2.9-1C161,78.9,163,77.8,163.4,75z"></path>
<path style="fill-rule:evenodd;clip-rule:evenodd;fill:#F4AA14;" d="M139.7,93.9c-0.5,1.7-0.3,1.6,0.5,2.9
c-0.3,0.9-1.4,1.1-1.6,2.1c-6.1,0.9-13.9,0.7-18.4-1.6c-0.2-0.8,0.5-0.8,0-1.3c-0.4-0.8-1.2-1.3-2.1-0.8c0.2-0.2,0.6-1-0.3-0.8
c-0.2-0.7,0.5-0.3,0.8-0.5c0.4-0.3,0.3-0.7,0.5-0.8c1.2-0.5,5.4-0.6,7.9-0.5C131.8,92.8,136.5,93.2,139.7,93.9z M133.4,94.5
c0.7-0.2,0.7,0.4,1.3,0.3C134.8,94,133.4,93.7,133.4,94.5z M136.3,94.5c0.2,0,0.4,0,0.5,0c0-0.2,0-0.3,0-0.5c-0.2,0-0.4,0-0.5,0
C136.3,94.1,136.3,94.3,136.3,94.5z M137.4,94.7C139.1,95.6,138.4,94,137.4,94.7L137.4,94.7z"></path>
<path style="fill-rule:evenodd;clip-rule:evenodd;fill:#F4AA14;" d="M130.8,103.4c0.9-1.8,4.7,0.5,7.6,0c-0.2,1.6-1,2.7-1.1,4.5
c-4.7,2.7-12.4,0.5-16.3-1.6c0.9-1.3-1.4-1.7-0.5-2.9c-0.4-0.5-1.4-0.4-1.8-0.8c3.4-1.7,8-1.8,11.5,0c0.2-0.1,0.4-0.3,0.8-0.3
C130.6,102.9,131.3,102.9,130.8,103.4z"></path>
<path style="fill-rule:evenodd;clip-rule:evenodd;fill:#0095A0;" d="M145.5,99.2c1.8,1.2,4.5,0.1,5.8,2.1c5.3-0.6,11-2.1,15.5,0.3
c0.8,1.9,2.6,3.7,1.8,6.3c-0.2,0.9,1.5,1.3,0.5,2.1c0.1,1.1-0.5,0.1-1,0.3c-1.2,1.4-3.5,1.8-4.5,3.4c-2.1-0.8-2.8,1.4-6,0.8
c-1-0.1-0.6-1.5-1.8-1.3c-1,0.9,0.9,2.4,1.3,3.4c-0.8,1-0.4,2.3,0,3.4c-1-0.3-1,0.9,0,0.5c-4.8,0.1-5.4-6.4-6.8-10.5
c-0.4-0.3-0.6-0.8-1.3-0.8c-0.1-3.8-1.7-6-3.7-7.9C145.4,100.7,145.6,100.1,145.5,99.2z M156.8,109.4c1.7-0.2,3.4,0.9,5,0
c0.9-0.5,1.8-2.3,1.6-3.7c-0.7-3.8-6.7-1.2-9.4-0.3c0.1,1.8,0.3,3.4,0.5,4.7C155.5,110.4,155.8,109.6,156.8,109.4z"></path>
<path style="fill-rule:evenodd;clip-rule:evenodd;fill:#0095A0;" d="M104,105c0.5,0.1,0.5,0.7,0.8,1c0.7,0,1.4,0,2.1,0
c3.4,2,5.5,4.2,6.8,8.9c0.4,1.4-0.2,2.8,0.3,4.5c-0.8,1.2-1,3-1.6,4.5c-1.9,0.4-2.5,0.6-4.2,1.3c0.7-0.9-1.1-0.8-1.3-1.1
c-1.3-1.6-0.4-5-0.5-7.1c-0.4-4.3-4.8-7.6-4.2-11.5C103.6,105.9,103.3,106,104,105z"></path>
<path style="fill-rule:evenodd;clip-rule:evenodd;fill:#F4AA14;" d="M164.7,113.4c1.1,0.5,2.5,0.6,2.9,1.8c2.4-0.3,3.5,1,3.7,2.4
c0.5,3.9-5,4.1-6.6,0.8c0.4-0.8-0.2-0.9,0.3-1.6c0-0.6-0.2-0.8-0.8-0.8c0.1-0.3,0.3-0.5,0.8-0.5c-0.1-0.6-0.9-0.5-0.8-1.3
C164.7,114.3,164.6,113.8,164.7,113.4z"></path>
<path style="fill-rule:evenodd;clip-rule:evenodd;fill:#0095A0;" d="M135.3,126.2c-2.5-0.3-3.3-4-0.3-4.5c1.3-2.8,0.8-7.1-2.1-7.3
c-1.1-0.1-2,0.7-3.1,1.3c2,4.5-0.1,15-6.6,11c-0.3-1.2-0.3-1.9-0.8-3.1c-0.1-0.3-0.8-1.3-0.8-1.3c0-0.6,1.5-2.3,0.8-4.2
c-0.2-0.8-0.9-1.1-1.3-1.6c0-0.7,1.7,0.3,1.3-0.8c-0.5-0.9-1.8-1-2.4-1.8c-0.5-0.7,0.2-1-0.5-1.6c-0.6-1.1-2.3-1.2-2.9-2.4
c1.2-0.4,2.5-0.7,3.1-1.6c1.3,0.3,2.9,0.6,4.2,1.3c1.2,0.7,1.9,1.9,2.9,2.1c2.1,0.3,4.1-1.8,6.3-1.8c3.9-0.1,5.8,2.6,7.9,5.8
c-0.1,3.3-0.5,4.7-1,7.3C138.1,123.8,137.4,125.7,135.3,126.2z"></path>
<path style="fill-rule:evenodd;clip-rule:evenodd;fill:#0095A0;" d="M91.7,126.7c1.5-4.7,2-9.4,1.8-14.7c2.6,0.1,4.7,2,6.3,3.9
c0.2,2.9-0.4,4.9,0.3,7.1c-1.1,1.8-1.5,4.4-2.6,6.3c0.7-0.4,1.6-0.5,2.4-0.8c1.1,0.4,1.2,1.8,2.6,1.8c0,1.1,0.7,1.4,1.1,2.1
c-1.9,0.3-3,1.3-4.5,2.1c-1.4-0.4-2.6-0.4-3.9-0.3c-0.6-0.5-1.8-0.5-2.4-1c-4.2,0.4-5.3-2.3-8.1-3.1c-2.5-4-5.1-8.5-3.9-16
c0.2-1,0.5-1.9,1-2.9c1.3-0.7,1.5,1.5,3.1,1.3c0.5,1.2,2.1,1.4,2.6,2.6c-1,1.9-0.1,4.4,0,7.3c0,1.1-0.2,2.4,0,2.9
c0.7,2.1,2.9,2.3,4.7,3.1C92.7,126.8,92.6,127.9,91.7,126.7z"></path>
<path style="fill-rule:evenodd;clip-rule:evenodd;fill:#F4AA14;" d="M145.2,116.5c0.1,1.8,3.2,1.5,5.8,2.4c3.5,1.2,4.9,3,8.9,3.4
c5,0.5,10.2-1.2,14.4,0.3c-0.5,0.8-1.5,1.1-1.6,2.4c-1.5,0-2.1,0.9-2.9,1.6c-3.2-0.1-5.6,1.3-8.4,1.3c-6.1-0.1-10.8-4.4-16-5.8
c-0.7-1.2-1-2.9-1.6-4.2C144.5,117.5,144.9,117.1,145.2,116.5z"></path>
<path style="fill:#F4AA14;" d="M252.8,102.1c-1.2-1.9-0.2-5.2,0.8-6.6c-0.8-0.1-1.1-0.9-1.3-1.6c0.3-0.6,0.6-1.2,1-1.6
c-0.5-1.2-1.2-3-2.1-2.9c-0.4-0.2,0.1-1.3-0.8-1c-0.6-0.5-1.9-0.2-2.6-0.5c-0.6,1.8-0.6,4.2-2.4,4.7c0.8,1.7-0.2,3.3-0.8,5
c0.5,0.1,1.1,0.1,1.3,0.5c0.5,1.5-0.2,2.9-0.3,4.5c-0.1,5,0.9,8.9,2.4,12.1c1.1,2.4,2.2,3.4,3.7,5c2,2.1,3.8,2.8,6,4.5
c1.7,1.2,3.5,2.8,6,2.6c1.1-0.1,2.1-1.2,3.1-1.3c-0.3-0.8-0.3-1.9,0.3-2.4c0.9,0.5,1.6,0.8,1.6,1.6c1-0.1,1.5-0.6,1.6-1.6
c-2.1-0.2-3-1.8-4.7-1.1c0.6,0.1,0.6,0.8,0,0.3c-0.9-0.6-1.7-1.3-3.1-1.3c-0.1-0.5-0.6-0.7-0.5-1.3c-6-1.8-11.8-7.4-9.2-15.2
c0.2-0.7-0.8-1.6,0-2.1C252.8,102.2,252.9,102.1,252.8,102.1C252.9,102.1,252.9,102.1,252.8,102.1z"></path>
<path style="fill:#0095A0;" d="M276.7,92.1c-3.2,1.1-6.5,2-7.9,5c-1.7-1.7-3.9-2.9-7.1-3.1c-0.6-0.1-0.3,0.8-0.8,0.8
c-2.1,0.7-4.1,1.7-5.2,3.1c-1,1.3-1,3.6-2.8,4.2c0,0-0.1,0-0.1,0c0,0.1,0,0.2,0,0.3c0,0,0,0,0,0c0.1,0.1,0.1,0.2,0.2,0.2
c1.4,2.1,0.4,4.9,1.4,6.9c1,1.9,3.6,2.5,4.2,4.5c1.4-1,1.7,1.3,2.9,1.3c0.8-0.5,2.5-0.1,3.1-0.8c-0.1-1-1.6-0.6-0.8-1.8
c-1.9-0.7-4.5-2.4-5-4.5c-0.7-3,0.7-8.8,3.9-7.6c1.2,0.4,0.6,1.4,1.1,2.4c0.5,1.2,2.1,1.9,1.8,3.1c2.2-0.3,1.3,1.1,2.9,1.1
c2.2-0.1,1.7-1.5,2.6-3.4c0.3-0.5,0.9-0.9,1-1.3c0.6-1.5,0.5-3.5,1.3-4.5c3.5-4.3,7.8,2.9,8.1,6c0.4,3.6-0.5,5.1-1.8,7.1
c-1.5,2.2-3.1,3.9-5.2,5.2c-3.3,2.1-4.3,1.2-7.1,1.8c0.6,1.7,1.5,3,2.6,4.2c3.4,0.6,5.5-2,8.4-0.3c4.2-3.2,8.5-7.3,8.9-13.9
C288,100,282.7,94.8,276.7,92.1z"></path>
<path style="fill:none;" d="M196.4,102.1c-3,0.8-3.6,2.5-5.5,4.2c-0.2,1.6,0.6,2.2,0.8,3.4c-0.6-0.2-0.4-1.1-1.6-0.8
c-0.8,1.5-0.5,3.7,0.5,4.7c2.1,0.2,4.5,1.4,6.8,0.5C197.5,110,196.2,106.4,196.4,102.1z"></path>
<path style="fill:#0095A0;" d="M202.5,114.2C202.5,114.2,202.5,114.2,202.5,114.2c-0.2-4.2-1.9-7.9-1.1-11c0.4,0,0.6,0.1,0.8,0.3
c0.4-0.9-0.9-0.2-0.8-0.8c0-1.9,0.4-4.2,0.5-5.5c0.3-2.4,1-5.9,0.8-7.6c-0.2-1.5-1.7-2.2-0.8-3.7c-1.8-0.5-2.1,0-3.4-0.5
c0.3-0.5-0.4-1.3-0.5-0.5c0.2,0.5-1,1.9-1.6,2.6c-0.2,1.1,0,4-0.8,5.2c-5.7-1.9-12.7,0.4-16.3,3.7c-3.2,3.3-2.8,10.5,0.5,13.4
c0.7,0,0.8-0.5,1.3,0c-0.1,1.4,1,1.5,0.8,2.9c2.6,1.1,3.5,4.1,5.5,5.8c3.6,0.4,7.1,0.7,10.8,1.1c0.8,4.8,2.9,8.2,3.9,12.9
c1.7,1,2,4.5,4.2,4.2c1.5-0.7,0.4-2.7-0.3-3.4c-1.3-4.5-3.2-8.5-3.1-14.3l0,0C202.8,117,202.6,115,202.5,114.2z M190.6,113.6
c-1.1-1-1.3-3.2-0.5-4.7c1.1-0.4,1,0.6,1.6,0.8c-0.1-1.3-1-1.8-0.8-3.4c1.9-1.7,2.5-3.4,5.5-4.2c-0.2,4.3,1.1,7.9,1,12.1
C195.2,115,192.8,113.8,190.6,113.6z"></path>
<path style="fill:#F4AA14;" d="M220.3,98.9c-2.3-1.3-5.4-3.7-8.9-3.7c-2.4,0-4.1,1.2-6,2.1c-0.8-0.1-1.9,0.2-2.4-0.3
c0.9,1.7,4,2.4,6,2.1c0.4,0.1,0.6,0.4,0.8,0.8c2.3-1,5,0.8,6.6,2.6c-0.1,1.7,0.3,2.9,0.5,4.2c-1.1,2.7-2.7,3.3-5.8,4.7
c-2.8,1.3-4.8,2.6-8,2.6c-0.2,0-0.4,0-0.6,0c0.1,0.9,0.4,2.9,0.5,4.6l0,0c0,0,0-0.1,0-0.1c0.2,0,0.5,0,0.7,0
c1.7-0.2,2.5-1.5,4.6-1.3c3-2.1,5.1-5.1,10-5.2C221.6,109.6,221.2,104.2,220.3,98.9z"></path>
<path style="fill:none;" d="M62.3,111.8c-0.3,0-0.4-0.3-0.8-0.3c0,1.6-1.5,0.8-2.6,0.8c-2,1.7-4,3.4-4.2,6.8c1.5,0.3,3.1,0.6,5,0.5
c1.3-0.6,1.3-2.4,2.6-2.9C61.7,115.1,62.4,113.7,62.3,111.8z"></path>
<path style="fill:none;" d="M62.3,111.8c-0.3,0-0.4-0.3-0.8-0.3c0,1.6-1.5,0.8-2.6,0.8c-2,1.7-4,3.4-4.2,6.8c1.5,0.3,3.1,0.6,5,0.5
c1.3-0.6,1.3-2.4,2.6-2.9C61.7,115.1,62.4,113.7,62.3,111.8z"></path>
<path style="fill:#F4AA14;" d="M80.7,125.4c-3.3-2-4.4-5.2-4.5-10c-0.6-0.9-1.4-1.5-1.8-2.6c-0.1-1,0.5-1.3,0.3-2.4
c-1.3-0.3-2.5,0.2-3.7,0.3c-1.4,0.3-2.2,2.6-2.7,4.6c-0.1,0.2-0.1,0.5-0.2,0.7L68,116c0,0.9,0,2.3-0.2,4.4c0-0.3,0.2-0.6,0.5-0.7
c0.1,0,0.2-0.1,0.3-0.1c-0.2,1.5,0.3,5.3,1,6.3c1.7,2.2,3.2,4,6,4.5c1.6-0.7,2.2-2.5,5-2.1C80.6,126.9,80.5,126.6,80.7,125.4z"></path>
<path style="fill:#0095A0;" d="M67.8,120.5C68,118.4,68,117,68,116c0-0.6,0-1-0.1-1.3c-0.4-2.7-1.7-4.7-3-6.1
c-0.3-0.3-1.1-1.9-1.7-1.2c0.2,0.1,0.9,0.7,0.6,1c-0.7,0.8-1.4,1.8-2.6,2.1c-0.9-1.3-0.1-3-1.3-4.2c-0.3,0-0.5,0-0.8,0
c-0.2,0-1,0.9-1.2,1c-0.5,0.3-0.9,0.7-1.4,0.9c-0.9,0.4-1.7,0.6-2.6,0.8c-0.7,0.1-0.9,0.7-1.4,1.1c-0.4,0.3-0.7,0.6-1.1,0.9
c-0.5,0.4-1.3,0.6-1.7,1c-0.3,0.3-0.4,0.8-0.6,1.1c-0.5,1.2-1.1,2.3-1.7,3.4c-1.1,2.3-1.8,4.8-0.3,7.1c1,1.5,5.7,3.2,7.9,3.4
c3,0.3,6-0.2,8.8-1.5c1.2-0.6,2.2-1.3,3.3-2.1c0.4-0.3,0.9-0.4,1-1C68.1,121.7,67.8,121.1,67.8,120.5z M62.3,116.8
c-1.3,0.5-1.4,2.3-2.6,2.9c-1.9,0.1-3.5-0.2-5-0.5c0.2-3.5,2.2-5.2,4.2-6.8c1.1,0,2.6,0.8,2.6-0.8c0.4-0.1,0.5,0.2,0.8,0.3
C62.4,113.7,61.7,115.1,62.3,116.8z"></path>
</g>
<g>
<polygon style="fill:#F4AA14;" points="0,0.8 11,0.8 14.9,26.3 20.7,0.8 31.6,0.8 37.4,26.3 41.4,0.8 52.3,0.8 44.1,46.4
32.7,46.4 26.2,17.7 19.6,46.4 8.3,46.4 "></polygon>
<polygon style="fill:#F4AA14;" points="56,0.8 87,0.8 87,10.5 67.6,10.5 67.6,17.8 85.6,17.8 85.6,27.1 67.6,27.1 67.6,36.1
87.6,36.1 87.6,46.4 56,46.4 "></polygon>
<path style="fill:#F4AA14;" d="M93.8,0.8h21.6c3.6,0,6.4,1.1,8.3,3.3c1.9,2.2,2.9,4.9,2.9,8.1c0,2.7-0.7,5-2.1,6.9
c-0.9,1.3-2.3,2.3-4,3.1c2.7,0.8,4.7,2.1,5.9,4.1c1.3,1.9,1.9,4.3,1.9,7.2c0,2.4-0.5,4.5-1.4,6.4c-0.9,1.9-2.1,3.4-3.7,4.5
c-1,0.7-2.4,1.2-4.4,1.5c-2.6,0.4-4.3,0.6-5.2,0.6H93.8V0.8z M105.5,18.7h5c1.8,0,3-0.4,3.8-1.1c0.7-0.8,1.1-1.9,1.1-3.3
c0-1.3-0.4-2.4-1.1-3.1c-0.7-0.7-1.9-1.1-3.7-1.1h-5.1V18.7z M105.5,36.6h5.9c2,0,3.4-0.4,4.2-1.3c0.8-0.9,1.2-2,1.2-3.5
c0-1.3-0.4-2.4-1.2-3.3c-0.8-0.8-2.2-1.2-4.3-1.2h-5.9V36.6z"></path>
<path style="fill:#0095A0;" d="M134.6,0.8h17.2c3.4,0,6.1,0.6,8.2,1.7c2.1,1.1,3.8,2.7,5.2,4.8c1.4,2.1,2.3,4.5,3,7.3
c0.6,2.8,0.9,5.7,0.9,8.8c0,4.9-0.5,8.7-1.4,11.3c-0.9,2.7-2.2,4.9-3.8,6.8c-1.6,1.8-3.4,3-5.2,3.6c-2.5,0.8-4.8,1.2-6.9,1.2h-17.2
V0.8z M146.1,11.1V36h2.8c2.4,0,4.1-0.3,5.1-1c1-0.7,1.8-1.8,2.4-3.4c0.6-1.6,0.9-4.3,0.9-7.9c0-4.8-0.6-8.1-1.9-9.9
c-1.3-1.8-3.4-2.7-6.4-2.7H146.1z"></path>
<path style="fill:#0095A0;" d="M199.3,0.8h11.5V28c0,2.7-0.3,5.2-1,7.6c-0.7,2.4-1.8,4.5-3.2,6.3c-1.5,1.8-3,3.1-4.6,3.8
c-2.2,1-4.9,1.5-8.1,1.5c-1.8,0-3.8-0.2-6-0.5c-2.1-0.3-4-0.9-5.4-1.9c-1.4-0.9-2.8-2.2-4-3.9c-1.2-1.7-2-3.5-2.5-5.3
c-0.7-2.9-1.1-5.5-1.1-7.7V0.8h11.5v27.8c0,2.5,0.6,4.4,1.7,5.8c1.1,1.4,2.7,2.1,4.7,2.1c2,0,3.5-0.7,4.7-2.1
c1.1-1.4,1.7-3.3,1.7-5.9V0.8z"></path>
<rect x="219" y="0.8" style="fill:#0095A0;" width="11.6" height="45.6"></rect>
<polygon style="fill:#0095A0;" points="238.9,0.8 249.7,0.8 263.8,26 263.8,0.8 274.7,0.8 274.7,46.4 263.8,46.4 249.8,21.4
249.8,46.4 238.9,46.4 "></polygon>
<path style="fill:#0095A0;" d="M280.9,23.6c0-7.4,1.7-13.2,5.1-17.4c3.4-4.1,8.1-6.2,14.2-6.2c6.2,0,11,2,14.4,6.1
c3.4,4.1,5,9.8,5,17.1c0,5.3-0.7,9.7-2.2,13.1c-1.5,3.4-3.6,6.1-6.4,8c-2.8,1.9-6.2,2.8-10.4,2.8c-4.2,0-7.7-0.8-10.5-2.5
c-2.8-1.6-5-4.2-6.7-7.8C281.7,33.4,280.9,29,280.9,23.6 M292.4,23.7c0,4.6,0.7,7.9,2.1,9.9c1.4,2,3.3,3,5.7,3c2.5,0,4.4-1,5.8-3
c1.4-2,2-5.5,2-10.6c0-4.3-0.7-7.4-2.1-9.4c-1.4-2-3.3-3-5.8-3c-2.3,0-4.2,1-5.6,3C293.1,15.7,292.4,19,292.4,23.7"></path>
</g>
</svg>